<?xml version="1.0" encoding="UTF-8"?>
<svg id="Layer_1" data-name="Layer 1" xmlns="http://www.w3.org/2000/svg" xmlns:xlink="http://www.w3.org/1999/xlink" viewBox="0 0 184.15 74.01">
  <defs>
    <style>
      .cls-1 {
        fill: #010101;
      }

      .cls-2 {
        clip-path: url(#clippath-4);
      }

      .cls-3 {
        fill: #7460aa;
      }

      .cls-4 {
        fill: none;
      }

      .cls-5 {
        clip-path: url(#clippath-1);
      }

      .cls-6 {
        stroke: #010101;
        stroke-width: 5px;
      }

      .cls-7 {
        fill: #5ce1e6;
      }

      .cls-8 {
        clip-path: url(#clippath-3);
      }

      .cls-9 {
        clip-path: url(#clippath-2);
      }

      .cls-10 {
        clip-path: url(#clippath);
      }
    </style>
    <clipPath id="clippath">
      <rect class="cls-4" x="1.02" y=".54" width="4.72" height="4.94"/>
    </clipPath>
    <clipPath id="clippath-1">
      <polygon class="cls-4" points="1.02 .55 5.73 .55 5.73 5.48 1.02 .55"/>
    </clipPath>
    <clipPath id="clippath-2">
      <rect class="cls-4" width="6.67" height="6.67"/>
    </clipPath>
    <clipPath id="clippath-3">
      <rect class="cls-4" x="1.02" y=".54" width="4.72" height="4.94"/>
    </clipPath>
    <clipPath id="clippath-4">
      <polygon class="cls-4" points="1.02 .55 5.73 .55 5.73 5.48 1.02 .55"/>
    </clipPath>
  </defs>
  <path class="cls-1" d="M43.33,53.91v-17.6c0-1.83-.41-3.41-1.21-4.73-.86-1.28-2.25-1.92-4.17-1.92s-3.47.36-4.67,1.08c-1.2.72-2.16,1.66-2.88,2.81-1.38,2.14-2.06,5-2.06,8.58v11.77h-4.48v-28.17h4.48v4.88c.94-1.58,2.14-2.89,3.58-3.92,1.54-1.01,3.31-1.52,5.31-1.52s3.64.28,4.88.83c1.23.6,2.28,1.39,3.13,2.35,1.71,2.02,2.56,4.66,2.56,7.94v17.6h-4.48v.02Z"/>
  <path class="cls-1" d="M83.97,39.18v2.38h-24.77c.43,2.43,1.6,4.42,3.52,5.96,1.97,1.57,4.15,2.35,6.54,2.35,1.63,0,3.18-.38,4.67-1.15,1.46-.72,2.67-1.74,3.65-3.06h5.13c-1.2,2.68-2.99,4.79-5.38,6.33-2.43,1.58-4.89,2.38-7.35,2.38s-4.67-.39-6.42-1.17c-1.79-.76-3.35-1.8-4.67-3.13-2.91-2.82-4.35-6.28-4.35-10.38s1.45-7.53,4.35-10.44c2.86-2.86,6.32-4.29,10.38-4.29s7.34,1.39,10.29,4.17c2.94,2.82,4.42,6.17,4.42,10.04h-.01ZM79.24,37.72c-.52-2.39-1.71-4.38-3.58-5.96-1.88-1.54-4.01-2.31-6.4-2.31-3.67,0-6.55,1.65-8.65,4.94-.64,1.03-1.08,2.14-1.33,3.33,0,0,19.96,0,19.96,0Z"/>
  <path class="cls-1" d="M110.79,49.12c-2.08,3.58-5.22,5.38-9.4,5.38-3.17,0-5.65-1.05-7.44-3.15-1.75-2.08-2.63-4.75-2.63-8v-17.6h4.48v17.6c0,1.83.43,3.39,1.29,4.67.8,1.33,2.17,2,4.08,2,3.5,0,5.98-1.11,7.44-3.33,1.44-2.18,2.17-5.23,2.17-9.15v-11.79h4.48v28.17h-4.48v-4.79h0Z"/>
  <path class="cls-1" d="M138.39,31.57c-1.03-.94-2.14-1.42-3.33-1.42s-2.14.32-2.94.96c-.86.7-1.57,1.51-2.13,2.44-1.07,1.88-1.6,3.97-1.6,6.27v14.08h-4.48v-28.17h4.48v5.83l.21-1.15c1.48-3.5,3.81-5.25,6.98-5.25.97,0,1.91.19,2.81.56v5.85Z"/>
  <path class="cls-7" d="M166.23,39.82c0-2.72-.95-5.11-2.83-7.17-1.92-2.04-4.29-3.06-7.1-3.06s-5.15,1.02-7.02,3.06c-1.93,2.06-2.9,4.45-2.9,7.17s.96,5.13,2.9,7.17c1.88,2.06,4.21,3.08,7.02,3.08s5.19-1.03,7.1-3.08c1.89-2.04,2.83-4.43,2.83-7.17ZM170.71,53.91h-4.48v-4.79c-.27.33-.52.66-.77.96-2.7,2.99-5.98,4.48-9.85,4.48s-7.16-1.49-9.79-4.48c-2.61-2.9-3.92-6.32-3.92-10.25s1.3-7.32,3.92-10.23c2.64-2.98,5.9-4.48,9.79-4.48s7.16,1.49,9.85,4.48c.25.29.51.61.77.96v-4.81h4.48v28.17h0Z"/>
  <path class="cls-6" d="M.87,71.51h183.28"/>
  <path class="cls-6" d="M3.38.56v70.95"/>
  <g class="cls-10">
    <g class="cls-5">
      <g class="cls-9">
        <g class="cls-8">
          <g class="cls-2">
            <path class="cls-3" d="M5.73,5.48H1.02V.56h4.72v4.92h0Z"/>
          </g>
        </g>
      </g>
    </g>
  </g>
  <polygon points="184.15 68.68 184.15 73.87 5.74 73.87 5.74 74.01 1.02 74.01 1.02 .56 5.74 .56 5.74 68.68 184.15 68.68"/>
  <polygon class="cls-7" points="184.15 .64 184.15 11.36 179.87 11.36 179.87 5.38 5.89 5.17 1.02 .54 184.15 .64"/>
  <rect class="cls-7" x="179.77" y="16.24" width="4.28" height="4.61"/>
  <rect class="cls-7" x="179.67" y="25.74" width="4.48" height="28.17"/>
</svg>